<?xml version="1.0" encoding="UTF-8"?>
<svg id="Layer_2" data-name="Layer 2" xmlns="http://www.w3.org/2000/svg" xmlns:xlink="http://www.w3.org/1999/xlink" viewBox="0 0 272.23 276.68">
  <defs>
    <style>
      .cls-1 {
        stroke-width: 2.05px;
      }

      .cls-1, .cls-2 {
        stroke: #fff;
        stroke-miterlimit: 22.93;
      }

      .cls-1, .cls-2, .cls-3 {
        fill: none;
      }

      .cls-1, .cls-2, .cls-4 {
        fill-rule: evenodd;
      }

      .cls-2 {
        stroke-width: 1.46px;
      }

      .cls-3 {
        clip-rule: evenodd;
      }

      .cls-3, .cls-4 {
        stroke-width: 0px;
      }

      .cls-4 {
        fill: #fff;
      }

      .cls-5 {
        clip-path: url(#clippath);
      }
    </style>
    <clipPath id="clippath">
      <polygon class="cls-3" points="0 2.06 272.23 0 272.23 274.62 0 276.68 0 2.06"/>
    </clipPath>
  </defs>
  <g id="Layer_1-2" data-name="Layer 1">
    <g class="cls-5">
      <g>
        <path class="cls-2" d="M159.54,38.77c1.13.27,7.17,1.75,7.57,1.86,78.52,21.05,136.37,92.89,136.37,178.25,0,101.88-82.39,184.5-183.99,184.5s-183.99-82.62-183.99-184.5S10.3,42.23,105.25,34.93"/>
        <polyline class="cls-1" points="153.63 50.96 245.22 50.96 245.22 279.95 -9.36 279.95 -9.36 50.96 105.86 50.96 105.96 50.96"/>
        <path class="cls-4" d="M136.04,79.27c1.25-1.01,3.08-.82,4.09.43,1.01,1.25.82,3.09-.43,4.1-1.25,1.01-3.08.82-4.09-.43-1.01-1.25-.82-3.09.43-4.1h0ZM133.78,56.06c1.37.24,2.82.36,4.36.36,11.17,0,19.99-7.27,19.8-20.23-.19-12.96-11.34-23.11-25.3-23.11s-26.22,10.28-26.78,27.52c-.56,17.24,7.16,25.47,15.38,38.54,5.69,9.04,6.93,17.65,5.06,27.44h31.69c-.07-2.33-.14-3.91-.22-4.58l-.1-.89c-.91-8.54-2.1-19.59-7.5-27.07-3.33-4.6-5.83-7.46-7.34-9.05.02.22.01.44,0,.66-.1.91-.54,1.78-1.31,2.41l-3.22,2.61c.03.39.02.78-.02,1.17-.17,1.61-.96,3.17-2.32,4.27-1.36,1.1-3.03,1.54-4.64,1.37-.39-.04-.77-.12-1.14-.23l-3.23,2.61c-.76.62-1.71.87-2.61.77-.91-.1-1.78-.54-2.4-1.31l-.02-.03c-.62-.76-.86-1.71-.77-2.62.1-.91.54-1.78,1.31-2.41l3.22-2.61c-.03-.39-.02-.78.02-1.17.14-1.34.7-2.63,1.67-3.66-1.02.81-2.27,1.14-3.48,1.01h0c-1.22-.13-2.39-.73-3.23-1.76-.83-1.03-1.17-2.3-1.04-3.52h0c.13-1.23.73-2.4,1.76-3.24,1.03-.83,2.29-1.17,3.51-1.04h0c1.22.13,2.39.73,3.23,1.76.83,1.03,1.16,2.3,1.04,3.52h0c-.1.99-.51,1.94-1.2,2.71l.06-.05c1.36-1.1,3.03-1.54,4.64-1.37.39.04.77.12,1.14.23l3.23-2.62c.76-.62,1.71-.87,2.61-.77.61.06,1.2.29,1.71.66-1.53-1.28-4.63-2.78-7.77-4.3-2.97-1.44-5.98-2.89-7.92-4.28-2.1-1.5-3.73-3.43-4.84-5.69-1.1-2.23-1.67-4.78-1.67-7.54,0-4.95,1.37-9.14,3.88-12.08,2.48-2.91,6.04-4.59,10.46-4.59s7.91,1.28,10.42,3.43c2.65,2.26,4.12,5.46,4.12,9.13s-.95,6.15-2.68,7.82c-1.73,1.67-4.19,2.41-7.23,2.41-.07,0-.2,0-.39,0-2.9-.1-4.94-1.29-6.25-2.93-1.3-1.63-1.88-3.69-1.88-5.57v-.31c.08-1.98.59-3.57,1.5-4.68.54-.67,1.22-1.16,2.01-1.46.66-.3,1.39-.47,2.16-.47,1.45,0,2.76.59,3.71,1.54h0s0,0,0,0c.95.95,1.54,2.27,1.54,3.72,0,.18,0,.37-.03.55v.15s-.02,0-.02,0c-.16,1.17-.7,2.22-1.49,3.02h0s0,0,0,0c-.95.95-2.27,1.54-3.71,1.54-1.29,0-2.47-.47-3.39-1.25.24.72.6,1.41,1.08,2.02,1,1.25,2.57,2.15,4.84,2.23h.33c2.55,0,4.57-.57,5.92-1.87,1.35-1.3,2.09-3.4,2.09-6.46s-1.23-5.8-3.45-7.69c-2.18-1.86-5.32-2.97-9.2-2.97s-6.91,1.43-9.03,3.92c-2.21,2.59-3.42,6.35-3.42,10.85,0,2.48.51,4.74,1.47,6.71.97,1.98,2.4,3.67,4.25,4.99,1.68,1.21,4.33,2.52,7.01,3.81h0ZM141.79,62.73c-.13-.13-.28-.26-.43-.36l.03-.03.44.35-.04.05h0ZM159.87,106.58c-.07-2.44-.15-4.09-.22-4.78l-.1-.89c-.94-8.76-2.15-20.1-7.85-27.98-1.21-1.68-2.32-3.13-3.32-4.38,2.95,2.93,6.03,6.41,8.11,9.9,4.62,7.71,5.53,19.95,5.62,21.35h-.01s.22,6.78.22,6.78h-2.45ZM164.21,106.58h3.14l-3.27-4.16.13,4.16h0ZM159.66,273.85l-.07-11.41c-11.33-1.85-21.66-6.72-30.13-13.74-1.5.87-3.17,1.64-5.02,2.3-16.5,5.84-37.5,4.74-37.5,4.74v18.11h72.73ZM159.58,260.91h0c.63.1,1.26.2,1.89.28h0s.43.06.43.06l.16.02c.48.06.96.12,1.45.17h.07c.5.06,1,.1,1.5.14h.14c.47.05.95.08,1.43.1h.13s.53.03.53.03h0c.63.02,1.26.04,1.89.05h0s.71,0,.71,0h43.06c-1.99-.65-3.88-1.5-5.66-2.53h-37.39c-32.82,0-59.44-26.69-59.44-59.6,0-17.89,7.95-33.86,20.32-44.87,2.62-2.34,5.59-4.68,8.8-7.02l.13-.1.27-.2.14-.1.55-.39.14-.1.14-.1.14-.1.14-.1.14-.1.14-.1.14-.1.14-.1.04-.03.09-.07.14-.1.14-.1.14-.1.28-.2h0s.14-.1.14-.1l.14-.1.14-.1.08-.06.06-.04.14-.1.14-.1.14-.1.14-.1.03-.02.12-.08.14-.1.14-.1.43-.3.14-.1.07-.05.03-.02.03-.02h.01s.02-.02.02-.02l.03-.02.03-.02.03-.02.03-.02h0s.02-.02.02-.02l.03-.02h.01s.02-.02.02-.02l.03-.02.03-.02h0s.03-.02.03-.02l.03-.02.03-.02.03-.02.03-.02h0s.03-.02.03-.02l.03-.02.03-.02.03-.02.02-.02h0s.03-.02.03-.02l.03-.02.03-.02.03-.02.03-.02.03-.02.06-.04.03-.02.03-.02.03-.02.03-.02.03-.02.03-.02h.01s.02-.02.02-.02l.03-.02.03-.02.03-.02.03-.02h0s.02-.02.02-.02l.03-.02.03-.02.03-.02.03-.02h0s.03-.02.03-.02l.03-.02.06-.04.03-.02.03-.02.03-.02.06-.04.03-.02.06-.04.03-.02.03-.02h.02s.04-.04.04-.04l.03-.02.03-.02.05-.03.15-.1.15-.1.04-.03.1-.07.15-.1.15-.1.15-.1.14-.09h.01s.15-.11.15-.11l.15-.1.15-.1.15-.1.08-.05.07-.05.15-.1c3.15-2.08,6.43-4.18,9.78-6.31h0s.23-.15.23-.15l.33-.21.33-.21.33-.21.33-.21.3-.19,2.78-1.75.28-.18.34-.21.34-.21.34-.21.34-.21.22-.14c1.62-1.02,3.25-2.05,4.87-3.08h0s.82-.52.82-.52l.41-.26.41-.26.16-.1c.91-.58,1.81-1.16,2.72-1.74,23.43-15.08,40.92-25.28,61.97-14.69l-1.85-2.54-30.58-41.86-1.98-2.71c2.2,11.13-.36,18.43-4.8,27.09-5.21,10.19-14.99,18.98-26.21,27.71l-.03.02-.03.02-.03.02-.03.02-.03.02-.03.02-.03.02-.81.62-.03.02-.03.02-.03.02-.03.02-.03.02-.03.02-.03.02-.03.02-.03.02-.03.02-.03.02-.03.02-.03.02-.03.02-.03.02-.03.02-.03.02-.03.02-.03.02-.03.02-.03.02-.03.02-.03.02-.03.02-.03.02-.03.02-.03.02-.03.02c-1.45,1.12-2.93,2.23-4.42,3.35h0s-1.84,1.38-1.84,1.38h0s-2.63,1.96-2.63,1.96h0s-.03.02-.03.02l-.7.52-.35.26-.7.52-.09.07c-3.82,2.85-7.67,5.75-11.46,8.74h0s-.03.02-.03.02l-.03.02-.03.02-.03.02-.03.02-.03.02-.03.02-.03.02-.03.02-.03.02-.03.02-.03.02-.03.02-.03.02-.03.02c-.42.34-.85.67-1.27,1.01l-.03.02-.03.02-.03.02-.03.02-.03.02-.03.02-.03.02c-19.73,15.83-37.08,34.3-37.08,61.86,0,19.18,8.67,36.33,22.3,47.73h0s.4.34.4.34l.02.02.02.02.02.02.02.02h0s.02.02.02.02l.02.02.02.02.02.02.42.34.03.02c.25.2.51.4.77.6l.4.31c.25.19.49.37.74.56l.41.3c.25.18.51.37.76.55l.04.03.54.38h.02c.23.17.46.32.69.47l.52.34c.23.15.47.3.7.45l.5.31c.25.16.51.31.77.47l.58.35.6.35c.26.15.52.29.78.44l.52.28c.26.14.52.28.78.41l.59.3c.25.13.5.25.75.37l.59.29c.29.14.58.28.88.41l.42.19c.31.14.63.28.95.42l.37.16c.34.14.68.28,1.02.42l.44.17c.34.13.68.26,1.02.39l.43.16c.34.12.68.24,1.02.36l.32.11c.36.12.72.24,1.09.35l.31.1c.41.13.82.25,1.24.37l.26.07c.4.11.81.22,1.21.33l.28.07c.39.1.78.19,1.17.29l.29.07c.42.1.85.19,1.27.28l.16.03c.48.1.96.19,1.44.28h.08s.61.12.61.12h0ZM161.47,262.73c.04,6.92.07,11.05.07,11.12h-.94s7.07,0,7.07,0l-.34-10.62c-1.98-.08-3.93-.25-5.86-.5h0ZM138.61,36.97c-.1.75-.45,1.41-.95,1.92h0c-.61.61-1.45.99-2.38.99s-1.77-.38-2.38-.98h0c-.61-.61-.98-1.45-.98-2.39s.38-1.78.98-2.38h0c.25-.26.55-.47.87-.63.39-.15.84-.23,1.33-.23,1.06,0,1.91.4,2.49,1.05.61.67.97,1.62,1.01,2.67h0ZM164.27,108.6h3.96l.76,9.03c-1.42,1.1-2.87,2.2-4.33,3.29l-.39-12.32h0ZM162.82,122.31l-2.6,1.94c-.1-6.39-.2-11.74-.3-15.65h2.46l.44,13.71h0ZM165.05,132.76c1.66-1.04,3.32-2.09,4.96-3.13l.64,7.61h-.26c-1.75,0-3.49.08-5.2.23l-.15-4.71h0ZM165.24,138.99c1.69-.15,3.41-.23,5.15-.23h.39s.03,0,.03,0h.03s.6,0,.6,0h.03s.03,0,.03,0h.03s.03,0,.03,0h.03s.03,0,.03,0c.3,0,.59.01.89.02h.03s.03,0,.03,0h.03s.03,0,.03,0h.03s.03,0,.03,0c33.14,1.15,59.34,27.3,59.34,60.84,0,1.3-.04,2.6-.12,3.88-.81-.27-1.64-.5-2.49-.69.06-1.06.08-2.12.08-3.19,0-31.95-25.34-57.04-56.62-58.47h-.03s-.03,0-.03,0c-.28-.01-.55-.02-.83-.03h-.03s-.03,0-.03,0h-.03s-.03,0-.03,0c-.26,0-.52-.01-.77-.02h-.03s-.03,0-.03,0h-.03s-.03,0-.03,0c-.31,0-.61-.01-.92-.01-3.24,0-6.45.32-9.59.92h0s-.24.05-.24.05h-.03s0,0,0,0h-.03s-.12.03-.12.03h-.03s-.03.01-.03.01h-.03s-.03.01-.03.01h-.03s-.03.01-.03.01h-.03s-.03.01-.03.01h-.03s-.03.01-.03.01h-.03s-.03.01-.03.01h-.03c-4.53.95-8.91,2.48-13.07,4.53h-.03s-.03.03-.03.03h-.03s-.03.03-.03.03c-.24.12-.48.24-.72.36h-.03s-.03.03-.03.03c-.22.11-.44.23-.66.34l-.03.02-.03.02-.03.02-.03.02c-18.37,9.82-31.75,29.73-31.75,52.07,0,16.44,7.06,32.55,18.74,43.87-1.03-.9-2.03-1.83-2.99-2.8-10.48-10.51-16.97-25.03-16.97-41.07,0-8.52,1.85-16.59,5.14-23.86,3.45-7.63,8.5-14.39,14.66-19.88,4.88-4.34,10.95-8.7,17.63-13.12,2.95-1.16,6.01-2.1,9.17-2.77h0c.62-.13,1.25-.25,1.88-.36h0c.97-.18,1.94-.32,2.93-.45h0c.62-.07,1.25-.14,1.88-.2h0ZM163.32,137.67c-.97.12-1.94.26-2.9.43l-.03-2.4,2.81-1.77.12,3.74h0ZM165.37,142.84c1.55-.15,3.12-.23,4.69-.23.35,0,.7,0,1.05.01l9.65,114.1c-3.47.65-7.04.99-10.7.99-.34,0-.68,0-1.02-.01l-3.67-114.86h0ZM167.15,257.64c-1.94-.11-3.85-.32-5.72-.63-.17-26.06-.53-76.96-.95-113.45,1-.2,2-.36,3.01-.5l3.66,114.58h0ZM169.22,263.28l.34,10.55-.94.03h13.59l-.89-10.57h-12.09ZM159.55,256.66c-9.31-1.91-17.62-6.29-24.48-12.3,6.79-6.96,7.88-16.12,8.41-20.34.53-4.25,2.18-48.27,3.07-75.59,3.83-1.96,7.88-3.47,12.06-4.46.42,36.26.78,86.61.94,112.69h0ZM158.54,138.45c-1.37.28-2.72.62-4.05.99,1.33-.85,2.67-1.71,4.03-2.57l.02,1.58h0ZM158.37,125.64c-3.78,2.82-7.61,5.69-11.38,8.63.09-3.08.14-5.36.16-6.54.11-9.55-11.49-11.67-23.78-10.71,1.04-2.92,1.89-5.72,2.51-8.42h32.17c.11,4.17.22,10.01.32,17.04h0ZM145.06,135.79c-20.43,16.22-38.65,35.14-38.65,63.84,0,17.57,7.11,33.49,18.59,45,.94.95,1.92,1.86,2.92,2.75-1.25.68-2.62,1.3-4.11,1.83-16.15,5.72-36.73,4.64-36.79,4.64l-1.98-.1v22h99.22s-.17-2.05-.17-2.05l-.88-10.42h81.92v-5.56h-25.12c3.21-2.26,5.96-5.13,8.1-8.43,3.1-4.8,4.9-10.51,4.9-16.63,0-8.46-3.42-16.12-8.95-21.66-3-3.01-6.63-5.4-10.67-6.95.1-1.46.15-2.93.15-4.41,0-17.51-6.98-33.06-18.31-44.26-8.45-8.35-19.32-14.27-31.52-16.79l-9.32-11.74.82-.53c12.37-7.96,23.06-14.55,33.4-17.35,10.15-2.75,20.08-1.84,31.15,5.04l6.6,4.1-4.59-6.28-39.89-54.61-5.14-7.04,2.47,8.36c2.03,6.85,2.41,12.22,1.67,17.05-.74,4.86-2.61,9.24-5.08,14.06-4.96,9.69-14.27,18.18-25.02,26.6l-.74-8.81-.05-.57-.35-.45-5.66-7.2c-.22-2.77-1.35-14.22-5.85-21.74-1.88-3.15-4.51-6.27-7.14-9-4.54-4.7-9.22-8.34-10.19-8.94-.3-.19-1.06-.64-2.08-1.23,5.85-.12,11.1-2.11,14.91-5.78,3.86-3.71,6.22-9.09,6.22-15.92h0s0-.42,0-.42h0c-.1-7.04-3.17-13.3-8.09-17.8-4.89-4.47-11.63-7.2-19.09-7.2s-15.01,2.97-20.31,8.41c-4.89,5.02-8.07,12.14-8.36,20.95-.49,15.09,5.04,23.44,11.83,33.69,1.27,1.91,2.58,3.89,3.85,5.91,3.62,5.76,5.35,11.32,5.56,17.13.21,5.88-1.12,12.1-3.62,19.11l-.98,2.75,2.9-.23c1.94-.15,3.83-.23,5.61-.21,4.49.05,8.57.66,11.54,2.09h0c2.63,1.27,4.35,3.23,4.58,6.1.02.3.03.58.03.82-.02,1.36-.09,4.2-.2,8.08h0ZM172.55,137.27l-.73-8.63,7.34,9.17c-2.17-.29-4.37-.47-6.61-.54h0ZM183.43,257.72c5.4-1.25,10.51-3.23,15.24-5.84.54.67,1.11,1.32,1.7,1.94-2.65,1.49-5.42,2.8-8.29,3.9h-8.65ZM196.04,257.72c1.87-.84,3.69-1.77,5.45-2.78,1.06,1.01,2.2,1.94,3.4,2.78h-8.85ZM222.45,261.76h0c-16.03,0-29.03-13.04-29.03-29.11s13-29.11,29.03-29.11c1.83,0,3.63.17,5.37.5v.02c.5.1,1,.2,1.49.33v-.02c.84.2,1.67.44,2.47.72v.03c.49.17.98.36,1.47.55v-.03c10.69,4.3,18.23,14.78,18.23,27.03,0,10.76-5.83,20.16-14.49,25.2l-2.14.04h0s-4.05-.06-4.05-.06c10.52-3.51,18.11-13.46,18.11-25.19,0-14.65-11.85-26.54-26.47-26.54s-26.47,11.88-26.47,26.54c0,5.97,1.97,11.48,5.29,15.92l-.06.04c.31.41.62.8.95,1.19l.05-.04c.55.65,1.13,1.28,1.74,1.88l-.05.03c.37.37.76.72,1.15,1.06l.05-.03c2.51,2.18,5.43,3.9,8.62,5.02h-.08c2.73.95,5.66,1.47,8.71,1.47h.12-.12,1.51s10.42.04,10.42.04l-10.42-.04h-1.4s1.4,0,1.4,0h-1.42s.02,0,.02,0c.72,0,1.44-.03,2.14-.09l9.67.13h0s.09,0,.09,0h.48s.02,0,.02,0h.36s12.62,0,12.62,0v2.53h-25.42ZM197.74,250.66c-4.69,2.56-9.77,4.49-15.12,5.68l-9.61-113.66c14.82.73,28.25,6.89,38.13,16.62,10.39,10.23,16.84,24.4,16.84,40.32,0,.96-.02,1.92-.07,2.88-1.77-.32-3.6-.49-5.46-.49-8.43,0-16.07,3.43-21.6,8.97-5.53,5.54-8.95,13.2-8.95,21.66,0,6.73,2.17,12.96,5.84,18.01h0ZM144.63,149.45c-.37,11.18-.86,24.97-1.34,37.65-.7,18.26-1.38,34.21-1.69,36.68v.11c-.52,4.05-1.59,12.67-7.95,19.18-.79-.74-1.55-1.49-2.3-2.27-10.43-10.92-16.66-25.9-16.66-41.16s6.47-29.49,16.56-39.87c3.96-4.08,8.48-7.57,13.38-10.32h0ZM222.45,257.67c-6.11,0-11.71-2.2-16.04-5.86,3.05-2.14,5.91-4.54,8.53-7.18,9.22-9.24,15.61-21.31,17.78-34.8,2.76,1.25,5.26,3,7.38,5.12,4.52,4.53,7.31,10.78,7.31,17.69s-2.79,13.16-7.31,17.69c-4.52,4.53-10.75,7.33-17.64,7.33h0ZM231.28,209.24c-2.66,17.19-12.35,32.05-26.04,41.53-.15-.14-.29-.28-.44-.43-.46-.46-.9-.93-1.32-1.43,13.4-9.16,22.87-23.67,25.36-40.46.83.22,1.64.48,2.43.78h0ZM227.37,208.12c-1.85,12.64-7.75,23.96-16.35,32.59-2.59,2.6-5.43,4.96-8.48,7.03-3.16-4.19-5.04-9.42-5.04-15.08,0-6.91,2.79-13.16,7.31-17.69,4.52-4.53,10.75-7.33,17.64-7.33,1.68,0,3.33.17,4.92.49h0ZM151.29,96.54l-4.14-.02c-.22.32-.47.62-.75.89-1.15,1.14-2.74,1.84-4.49,1.84-1.74,0-3.32-.73-4.46-1.88-.27-.28-.52-.58-.74-.9l-4.15-.02c-.98,0-1.87-.41-2.51-1.06-.64-.65-1.04-1.55-1.03-2.54v-.03c0-.98.41-1.87,1.06-2.52.65-.64,1.54-1.04,2.53-1.03l4.14.02c.22-.32.47-.62.75-.89,1.15-1.14,2.74-1.84,4.49-1.84,1.74,0,3.32.73,4.46,1.88.27.28.52.58.74.9l4.15.02c.98,0,1.87.41,2.51,1.06.64.65,1.04,1.55,1.03,2.54v.03c0,.98-.41,1.87-1.06,2.52-.65.64-1.54,1.04-2.53,1.03h0ZM144.13,96.51c-.64.39-1.4.62-2.2.61-.81,0-1.56-.24-2.2-.64l4.4.02h0ZM139.76,89.3c.64-.39,1.4-.62,2.2-.61.81,0,1.56.24,2.2.63l-4.4-.02h0ZM132.57,94.56c-.92,0-1.67-.77-1.67-1.69v-.03c0-.93.76-1.68,1.69-1.67l3.26.02h2.25s7.7.05,7.7.05h2.25s3.26.03,3.26.03c.92,0,1.67.77,1.67,1.69v.03c0,.93-.76,1.68-1.69,1.67l-3.26-.02h-2.25s-7.7-.05-7.7-.05h-2.25s-3.26-.03-3.26-.03h0ZM135.96,72.57c-.25.71-.69,1.36-1.32,1.87-.63.51-1.36.81-2.1.9l3.42-2.78h0ZM128.03,69.76c.25-.71.69-1.36,1.32-1.87.63-.51,1.36-.81,2.1-.9l-3.42,2.78h0ZM125.77,78.39l2.54-2.06,1.75-1.42,5.98-4.85,1.75-1.42,2.54-2.06c.72-.58.83-1.65.25-2.37l-.02-.03c-.58-.72-1.64-.83-2.36-.25l-2.54,2.06-1.75,1.42-5.99,4.85-1.75,1.42-2.54,2.06c-.72.58-.83,1.65-.25,2.37l.02.03c.58.72,1.64.83,2.36.25h0ZM122.56,60.8c1.25-1.01,3.08-.82,4.09.43,1.01,1.25.82,3.09-.43,4.1-1.25,1.01-3.08.82-4.09-.43-1.01-1.25-.82-3.09.43-4.1h0ZM134.86,77.8c-1.03.84-1.63,2.01-1.76,3.23h0c-.13,1.23.21,2.5,1.04,3.53.83,1.03,2.01,1.63,3.23,1.76h0c1.22.13,2.48-.21,3.51-1.04,1.03-.84,1.63-2.01,1.76-3.23h0c.13-1.23-.21-2.5-1.04-3.53-.83-1.03-2.01-1.63-3.23-1.76h0c-1.22-.13-2.48.21-3.51,1.04Z"/>
      </g>
    </g>
  </g>
</svg>